<svg width="22" height="17" viewBox="0 0 22 17" fill="none" xmlns="http://www.w3.org/2000/svg">
<path d="M20.3713 2.87494L1.63072 2.87494C1.28588 2.87494 1.00607 2.45491 1.00609 1.93747C1.00611 1.41995 1.28601 1 1.6308 1L20.3714 1C20.7163 1 20.9961 1.42003 20.9961 1.93747C20.996 2.45491 20.7161 2.87494 20.3713 2.87494Z" fill="#303030" stroke="white" stroke-width="0.2"/>
<path d="M1.63032 7.5625L20.3709 7.5625C20.7158 7.5625 20.9956 7.98253 20.9956 8.49997C20.9955 9.0174 20.7156 9.43743 20.3709 9.43743L1.63024 9.43743C1.2854 9.43743 1.00558 9.0174 1.0056 8.49997C1.00563 7.98253 1.28547 7.5625 1.63032 7.5625Z" fill="#303030" stroke="white" stroke-width="0.2"/>
<path d="M1.63081 14.125L14.1244 14.125C14.4692 14.125 14.7489 14.545 14.7487 15.0625C14.7485 15.58 14.4685 15.9999 14.1237 15.9999L1.63011 15.9999C1.28528 15.9999 1.00561 15.5799 1.0058 15.0625C1.00594 14.545 1.28597 14.125 1.63081 14.125Z" fill="#303030" stroke="white" stroke-width="0.2"/>
</svg>
